REM MD5 910a31b8df23c4eb40c635d4e8babf99
FILE "Medarot R (Japan).bin" BINARY
  TRACK 01 MODE2/2352
    INDEX 01 00:00:00
  TRACK 02 AUDIO
    INDEX 00 05:21:08
    INDEX 01 05:23:08
  TRACK 03 AUDIO
    INDEX 00 05:55:08
    INDEX 01 05:57:08
  TRACK 04 AUDIO
    INDEX 00 10:22:09
    INDEX 01 10:24:09
  TRACK 05 AUDIO
    INDEX 00 10:33:46
    INDEX 01 10:35:46
REM LEADOUT 13:55:46
